<svg id="svg" version="1.1" xmlns="http://www.w3.org/2000/svg" xmlns:xlink="http://www.w3.org/1999/xlink" width="400" height="400" viewBox="0, 0, 400,400"><g id="svgg"><path id="path0" d="M104.142 25.911 C 103.514 26.522,102.775 27.419,102.500 27.905 C 101.927 28.918,101.742 262.000,102.314 262.000 C 102.486 262.000,102.946 262.540,103.336 263.200 C 103.726 263.860,104.305 264.400,104.623 264.400 C 104.940 264.400,105.200 264.580,105.200 264.800 C 105.200 265.020,105.740 265.200,106.400 265.200 C 107.060 265.200,107.600 265.380,107.600 265.600 C 107.600 265.863,116.933 266.000,134.800 266.000 L 162.000 266.000 162.000 294.000 L 162.000 322.000 163.600 323.600 L 165.200 325.200 193.800 325.200 L 222.400 325.200 222.400 353.800 C 222.400 372.600,222.537 382.400,222.800 382.400 C 223.020 382.400,223.200 382.660,223.200 382.977 C 223.200 383.295,223.740 383.874,224.400 384.264 C 225.060 384.654,225.600 385.114,225.600 385.286 C 225.600 385.459,241.350 385.600,260.600 385.600 C 283.667 385.600,295.600 385.464,295.600 385.200 C 295.600 384.980,295.878 384.800,296.218 384.800 C 297.190 384.800,298.800 382.941,298.800 381.818 C 298.800 381.258,298.980 380.800,299.200 380.800 C 299.466 380.800,299.600 341.867,299.600 264.800 C 299.600 187.733,299.466 148.800,299.200 148.800 C 298.980 148.800,298.800 148.440,298.800 148.000 C 298.800 147.560,298.641 147.200,298.447 147.200 C 298.252 147.200,297.999 146.840,297.884 146.400 C 297.769 145.960,297.388 145.600,297.037 145.600 C 296.687 145.600,296.400 145.420,296.400 145.200 C 296.400 144.980,296.040 144.800,295.600 144.800 C 295.160 144.800,294.800 144.620,294.800 144.400 C 294.800 144.137,285.333 144.000,267.200 144.000 L 239.600 144.000 239.600 116.595 C 239.600 88.494,239.601 88.520,238.100 86.887 C 237.825 86.588,237.600 86.176,237.600 85.971 C 237.600 85.767,237.330 85.600,237.000 85.600 C 236.670 85.600,236.400 85.420,236.400 85.200 C 236.400 84.980,236.051 84.800,235.624 84.800 C 235.197 84.800,234.736 84.620,234.600 84.400 C 234.439 84.140,224.729 84.000,206.776 84.000 L 179.200 84.000 179.200 56.075 C 179.200 28.704,179.184 28.134,178.400 27.292 C 177.960 26.820,177.600 26.275,177.600 26.081 C 177.600 24.881,175.257 24.800,140.423 24.800 L 105.285 24.800 104.142 25.911 M166.571 37.029 C 167.131 37.588,167.200 40.703,167.200 65.291 L 167.200 92.924 168.197 94.231 C 170.246 96.918,168.820 96.800,199.253 96.800 L 226.784 96.800 226.892 124.500 C 227.015 156.005,226.843 154.380,230.227 155.971 C 231.958 156.784,232.504 156.800,259.396 156.800 L 286.800 156.800 286.800 264.957 C 286.800 363.213,286.742 373.137,286.167 373.357 C 284.822 373.873,235.789 373.627,235.082 373.100 C 234.468 372.642,234.403 370.269,234.306 344.800 C 234.206 318.679,234.156 316.935,233.472 315.928 C 231.659 313.257,233.519 313.421,202.600 313.200 L 174.600 313.000 174.400 285.000 C 174.210 258.342,174.164 256.946,173.441 255.880 C 171.698 253.309,172.988 253.420,142.400 253.200 L 114.600 253.000 114.499 145.242 C 114.425 65.918,114.517 37.341,114.848 36.942 C 115.578 36.063,165.690 36.147,166.571 37.029 " stroke="none" fill="#050505" fill-rule="evenodd"></path><path id="path1" d="M115.200 145.000 L 115.200 252.000 142.405 252.000 C 157.368 252.000,169.923 252.159,170.305 252.353 C 170.687 252.548,171.510 252.946,172.133 253.239 C 172.756 253.531,173.701 254.513,174.233 255.420 L 175.200 257.070 175.200 284.535 L 175.200 312.000 202.404 312.000 C 234.210 312.000,232.333 311.761,234.757 316.112 C 235.591 317.609,235.600 317.908,235.600 345.012 L 235.600 372.400 260.800 372.400 L 286.000 372.400 286.000 265.010 L 286.000 157.621 258.029 157.510 C 230.490 157.402,230.041 157.387,228.954 156.575 C 225.989 154.361,226.213 156.768,226.092 125.771 L 225.984 98.000 199.016 98.000 C 181.468 98.000,171.961 97.860,171.800 97.600 C 171.664 97.380,171.095 97.200,170.536 97.200 C 169.489 97.200,167.334 95.361,166.465 93.726 C 166.125 93.087,166.000 85.485,166.000 65.426 L 166.000 38.000 140.600 38.000 L 115.200 38.000 115.200 145.000 " stroke="none" fill="#9cccf4" fill-rule="evenodd"></path><path id="path2" d="M114.985 37.300 C 114.881 37.575,114.841 86.220,114.898 145.400 L 115.000 253.000 143.067 253.200 L 171.133 253.400 172.467 254.376 C 173.274 254.968,173.575 255.076,173.229 254.650 C 171.705 252.774,172.136 252.800,142.820 252.800 L 115.200 252.800 115.200 144.994 L 115.200 37.188 140.762 37.294 C 154.821 37.352,166.240 37.265,166.138 37.100 C 165.792 36.539,115.199 36.737,114.985 37.300 M166.497 65.200 C 166.450 80.270,166.544 92.808,166.706 93.062 C 166.971 93.480,166.961 64.551,166.690 45.400 C 166.630 41.220,166.544 50.130,166.497 65.200 M169.290 96.203 L 170.766 97.205 198.683 97.100 L 226.600 96.994 198.600 96.888 C 171.506 96.786,170.568 96.757,169.600 96.000 C 169.050 95.570,168.423 95.214,168.207 95.209 C 167.991 95.204,168.478 95.651,169.290 96.203 M226.497 125.000 C 226.450 140.180,226.544 152.808,226.706 153.062 C 226.971 153.480,226.962 124.914,226.690 105.200 C 226.631 100.910,226.544 109.820,226.497 125.000 M227.656 154.741 C 227.910 155.148,228.497 155.711,228.959 155.991 C 229.548 156.347,229.448 156.125,228.625 155.250 C 227.288 153.827,226.986 153.669,227.656 154.741 M230.190 156.784 C 230.332 157.013,230.917 157.200,231.490 157.200 C 232.744 157.200,232.599 157.008,231.066 156.640 C 230.323 156.462,230.021 156.511,230.190 156.784 M286.499 264.700 L 286.400 372.400 260.800 372.400 L 235.200 372.400 235.160 345.500 C 235.138 330.705,234.961 318.150,234.766 317.600 C 234.485 316.807,234.451 316.931,234.601 318.200 C 234.706 319.080,234.793 331.725,234.796 346.300 L 234.800 372.800 260.613 372.800 C 280.895 372.800,286.466 372.693,286.615 372.300 C 286.719 372.025,286.758 323.470,286.702 264.400 L 286.599 157.000 286.499 264.700 M174.702 284.738 C 174.759 299.842,174.888 312.425,174.990 312.700 C 175.136 313.094,181.062 313.194,202.887 313.172 C 218.723 313.156,230.257 312.996,229.800 312.800 C 229.360 312.611,216.895 312.444,202.100 312.428 L 175.200 312.400 175.194 285.300 C 175.191 270.395,175.056 257.992,174.894 257.738 C 174.732 257.484,174.646 269.634,174.702 284.738 M231.956 313.917 C 232.482 314.341,233.262 315.118,233.691 315.644 C 234.119 316.170,234.336 316.330,234.174 316.000 C 233.692 315.021,232.664 313.953,231.804 313.536 C 231.194 313.240,231.230 313.332,231.956 313.917 " stroke="none" fill="#5c7c94" fill-rule="evenodd"></path><path id="path3" d="M114.880 36.880 C 114.334 37.426,114.155 252.601,114.700 252.938 C 114.865 253.040,115.000 204.496,115.000 145.062 L 115.000 37.000 140.377 36.897 C 157.808 36.826,165.886 36.926,166.177 37.217 C 166.462 37.502,166.667 46.661,166.805 65.320 L 167.011 93.000 167.105 65.329 C 167.190 40.624,167.133 37.590,166.571 37.029 C 165.744 36.201,115.703 36.057,114.880 36.880 M167.213 93.420 C 167.229 93.918,168.001 94.854,169.000 95.588 C 169.604 96.032,169.556 95.884,168.806 94.988 C 168.259 94.335,167.674 93.629,167.506 93.420 C 167.313 93.180,167.205 93.180,167.213 93.420 M227.024 152.600 C 227.150 153.260,227.546 154.070,227.904 154.400 C 228.484 154.933,228.509 154.933,228.132 154.400 C 227.898 154.070,227.502 153.260,227.251 152.600 L 226.795 151.400 227.024 152.600 M229.200 155.740 C 229.530 156.056,230.250 156.446,230.800 156.607 C 232.067 156.978,231.788 156.711,230.000 155.844 C 228.984 155.352,228.765 155.323,229.200 155.740 M245.900 157.100 C 253.435 157.161,265.765 157.161,273.300 157.100 C 280.835 157.039,274.670 156.989,259.600 156.989 C 244.530 156.989,238.365 157.039,245.900 157.100 M171.000 253.852 C 171.660 254.193,172.621 254.951,173.136 255.536 C 173.969 256.484,174.021 256.499,173.610 255.679 C 173.153 254.765,170.970 253.190,170.200 253.218 C 169.980 253.225,170.340 253.511,171.000 253.852 M174.316 284.729 C 174.379 300.053,174.559 312.719,174.716 312.876 C 174.872 313.032,174.910 300.584,174.800 285.213 C 174.690 269.842,174.510 257.176,174.400 257.066 C 174.290 256.956,174.252 269.404,174.316 284.729 M229.913 313.490 C 231.420 313.677,233.844 315.864,234.116 317.283 L 234.291 318.200 234.346 317.300 C 234.434 315.841,231.508 313.185,229.900 313.264 L 228.600 313.328 229.913 313.490 M234.497 345.686 C 234.402 372.108,234.419 372.782,235.174 373.186 C 236.010 373.633,285.019 373.798,286.167 373.357 C 287.915 372.686,284.857 372.608,260.803 372.706 L 234.806 372.811 234.700 345.706 L 234.594 318.600 234.497 345.686 " stroke="none" fill="#3c5464" fill-rule="evenodd"></path><path id="path4" d="M115.200 37.597 C 115.200 37.863,123.809 38.000,140.600 38.000 L 166.000 38.000 166.000 65.426 C 166.000 85.485,166.125 93.087,166.465 93.726 C 167.191 95.093,169.537 97.288,170.079 97.107 C 170.348 97.017,170.015 96.618,169.338 96.218 C 166.470 94.524,166.623 96.132,166.400 65.200 L 166.200 37.400 140.700 37.297 C 123.774 37.229,115.200 37.330,115.200 37.597 M171.800 97.600 C 171.961 97.860,181.468 98.000,199.016 98.000 L 225.984 98.000 226.092 125.771 C 226.198 153.110,226.213 153.559,227.025 154.646 C 228.028 155.989,229.900 157.434,230.221 157.112 C 230.350 156.983,229.920 156.562,229.265 156.175 C 226.276 154.409,226.400 155.769,226.400 124.846 L 226.400 97.200 198.976 97.200 C 180.796 97.200,171.636 97.335,171.800 97.600 M258.499 157.500 L 285.999 157.606 286.100 265.103 L 286.201 372.600 286.301 264.900 L 286.400 157.200 258.700 157.297 L 231.000 157.394 258.499 157.500 M115.200 252.400 C 115.200 252.663,124.675 252.800,142.824 252.800 C 161.137 252.800,170.364 252.665,170.200 252.400 C 170.039 252.140,160.396 252.000,142.576 252.000 C 124.592 252.000,115.200 252.137,115.200 252.400 M171.865 253.574 C 172.561 253.998,173.312 254.671,173.535 255.069 C 173.758 255.468,174.052 255.682,174.188 255.545 C 174.561 255.172,172.038 252.800,171.269 252.801 C 170.848 252.802,171.069 253.089,171.865 253.574 M174.412 256.400 C 174.412 256.730,174.587 257.270,174.800 257.600 C 175.145 258.133,175.188 258.133,175.188 257.600 C 175.188 257.270,175.013 256.730,174.800 256.400 C 174.455 255.867,174.412 255.867,174.412 256.400 M202.400 312.393 C 230.982 312.609,231.046 312.613,232.940 314.327 C 235.055 316.240,234.984 315.286,235.208 345.000 L 235.416 372.600 235.508 345.112 C 235.599 317.821,235.594 317.614,234.757 316.112 C 232.325 311.748,234.235 311.984,202.304 312.093 L 175.000 312.186 202.400 312.393 " stroke="none" fill="#94c4ec" fill-rule="evenodd"></path></g></svg>