<?xml version="1.0" encoding="UTF-8"?>
<svg version="1.1" xmlns="http://www.w3.org/2000/svg" width="512" height="512">
<path d="M0 0 C2.05249904 1.48168569 3.98700214 3.04289159 5.91796875 4.6796875 C6.66046875 5.30101562 7.40296875 5.92234375 8.16796875 6.5625 C12.53589794 10.32541197 16.37041495 14.26462405 20.09375 18.65625 C27.89213206 27.31377014 27.89213206 27.31377014 38.44921875 30.984375 C43.96274693 30.83887912 49.13516045 29.27784416 54.41796875 27.8046875 C56.40748472 27.26537643 58.39706683 26.7263093 60.38671875 26.1875 C61.33200439 25.92904297 62.27729004 25.67058594 63.2512207 25.40429688 C74.87933915 22.24470193 86.65743685 19.56211536 98.17578125 24.68359375 C108.34294866 30.54034608 113.15394157 40.05117723 116.1640625 51.0859375 C116.80246977 53.51969422 117.42490806 55.95705999 118.04321289 58.39599609 C119.37775906 63.65804019 120.77851365 68.87869354 122.41796875 74.0546875 C122.77890625 75.21742187 123.13984375 76.38015625 123.51171875 77.578125 C126.07735265 83.23677309 129.3293024 85.65101659 135.0234375 87.81640625 C139.74530752 89.39405333 144.51185332 90.65645908 149.35327148 91.80786133 C163.40263086 95.14942724 177.62182024 98.8108587 185.91796875 111.6796875 C193.49727032 125.93291332 186.97948828 143.84532645 182.73046875 158.2421875 C179.47098217 168.55958091 179.47098217 168.55958091 181.66015625 178.8125 C186.00691497 185.26514183 191.68856252 190.54833246 197.48046875 195.6796875 C205.98618353 203.28003208 215.06144852 212.9301707 216.2265625 224.83203125 C216.62250457 236.45833029 213.8710939 244.39290473 206.10546875 253.3671875 C203.04938704 256.59595875 199.88135294 259.69651675 196.69921875 262.80078125 C195.56770386 263.91223511 195.56770386 263.91223511 194.41333008 265.04614258 C192.90552885 266.52172379 191.38749383 267.98693917 189.8581543 269.44018555 C184.8282555 274.33854634 180.17441989 279.22232247 179.75390625 286.53125 C179.93179687 287.44648438 180.1096875 288.36171875 180.29296875 289.3046875 C180.61201172 290.95017578 180.61201172 290.95017578 180.9375 292.62890625 C182.59034777 299.72276009 184.58659526 306.73371913 186.578125 313.73828125 C189.80736964 325.34168711 190.76132348 337.00001219 184.734375 347.80078125 C176.85576511 359.60753659 162.22665781 362.7668592 149.2734375 366.18359375 C148.29536133 366.44269531 147.31728516 366.70179688 146.30957031 366.96875 C144.37845595 367.47435085 142.44425704 367.96835043 140.50683594 368.44921875 C133.9209031 370.15308927 129.02447426 371.8825877 124.78515625 377.51171875 C121.46975801 383.93893814 120.24768685 391.35042373 118.56884766 398.34155273 C115.50889799 410.97288657 111.62905029 423.64492804 101.04296875 431.9296875 C90.15521875 438.0268275 77.64559418 436.54264887 66.08972168 433.39306641 C64.11194132 432.83445575 62.13953622 432.25981794 60.16796875 431.6796875 C46.0245967 426.82708844 46.0245967 426.82708844 31.82836914 428.66430664 C24.73447648 433.61433822 18.89963862 440.6625636 12.95898438 446.89257812 C4.42820745 455.6367814 -4.71802678 463.41698834 -17.39453125 463.9921875 C-33.4321874 463.47659449 -43.963364 452.2594626 -54.45703125 441.3671875 C-55.89721182 439.87883955 -57.33975855 438.39308069 -58.78872681 436.9132843 C-60.08813073 435.58548871 -61.37907008 434.24942465 -62.66943359 432.9128418 C-67.66661175 428.28734204 -71.18029592 427.13638265 -77.85742188 427.32421875 C-84.84670467 428.09469087 -91.58226839 430.28207769 -98.31005859 432.26171875 C-110.48475581 435.80827409 -122.83822721 438.29273771 -134.93359375 432.9453125 C-149.49845004 424.36528807 -152.28618799 407.40380043 -156.23828125 392.265625 C-156.41464111 391.59241211 -156.59100098 390.91919922 -156.77270508 390.22558594 C-157.23587759 388.43480397 -157.68114964 386.63941859 -158.125 384.84375 C-159.11836727 381.55955615 -160.52292777 378.72762501 -162.08203125 375.6796875 C-162.08203125 375.0196875 -162.08203125 374.3596875 -162.08203125 373.6796875 C-166.02261929 372.03777581 -170.00796002 370.70283476 -174.08203125 369.4296875 C-174.76338135 369.21570313 -175.44473145 369.00171875 -176.14672852 368.78125 C-180.24035344 367.51029519 -184.34816889 366.32023133 -188.484375 365.1953125 C-189.86206055 364.81681152 -189.86206055 364.81681152 -191.26757812 364.43066406 C-193.05387594 363.9432038 -194.84284853 363.46540365 -196.63476562 362.99902344 C-207.03770312 360.15203015 -216.42850931 355.32853622 -222.01171875 345.8125 C-226.87133515 336.12873886 -225.46740685 325.6801784 -222.83203125 315.5546875 C-222.60821777 314.6481543 -222.3844043 313.74162109 -222.15380859 312.80761719 C-221.09710477 308.5493479 -219.98802877 304.30830528 -218.82421875 300.078125 C-215.60386699 289.88007289 -215.60386699 289.88007289 -217.08203125 279.6796875 C-219.6571646 275.93526788 -222.83325347 272.83279931 -226.08203125 269.6796875 C-252.16177535 244.2889638 -252.16177535 244.2889638 -252.58203125 229.0546875 C-252.31931458 214.3734617 -242.7479298 205.20135606 -232.86328125 195.55859375 C-232.10893799 194.81762451 -231.35459473 194.07665527 -230.57739258 193.31323242 C-229.06959135 191.83765121 -227.55155633 190.37243583 -226.0222168 188.91918945 C-218.77268982 181.8634096 -218.77268982 181.8634096 -215.94799805 172.43798828 C-216.45261634 165.11394192 -218.65876456 157.98166536 -220.58203125 150.9296875 C-221.21978456 148.5605236 -221.8552815 146.1907509 -222.48828125 143.8203125 C-222.76994141 142.78422852 -223.05160156 141.74814453 -223.34179688 140.68066406 C-225.93661051 130.1610568 -226.25179842 120.20397889 -220.86328125 110.48046875 C-211.53408509 96.87539101 -194.23902319 93.94197138 -179.13549805 90.55444336 C-172.29128737 88.95624332 -165.57964679 87.33816343 -161.32421875 81.34375 C-158.34511151 75.96045095 -157.10058616 69.99612864 -155.68676758 64.05227661 C-148.87076679 35.67091761 -148.87076679 35.67091761 -138.26953125 27.01171875 C-132.71827702 23.63140144 -127.55747906 22.04387049 -121.08203125 21.9921875 C-119.90193481 21.98155273 -119.90193481 21.98155273 -118.69799805 21.97070312 C-108.80231516 22.24529974 -99.30490698 25.12344625 -89.84570312 27.83325195 C-79.42905811 31.33496348 -79.42905811 31.33496348 -68.98925781 29.71484375 C-61.50981512 25.18184818 -55.7160232 18.49379387 -49.74145508 12.20214844 C-35.81508896 -2.40195292 -19.07850028 -12.09856115 0 0 Z " fill="#348CE3" transform="translate(274.08203125,28.3203125)"/>
<path d="M0 0 C5.65575795 3.39584621 9.31837151 8.06719478 11.84765625 14.109375 C13.06077912 22.04639593 12.57322354 28.93711868 7.953125 35.609375 C4.46309248 39.75338393 0.65105605 43.53456911 -3.25390625 47.28515625 C-6.22156429 50.1410255 -8.90881293 53.18174195 -11.578125 56.31640625 C-13.73693198 58.77519634 -16.0690048 61.03645282 -18.40234375 63.328125 C-20.23476862 65.19327174 -21.9458751 67.12865246 -23.65234375 69.109375 C-26.40578059 72.30532847 -29.29911554 75.28167563 -32.30883789 78.23461914 C-34.08571016 80.04161188 -35.74671248 81.90282434 -37.3984375 83.82421875 C-41.06637878 88.04230279 -44.86895626 92.11629847 -48.71484375 96.171875 C-50.13046853 97.67032714 -51.5458282 99.16902978 -52.9609375 100.66796875 C-53.66460449 101.41288574 -54.36827148 102.15780273 -55.09326172 102.92529297 C-58.16591339 106.18447507 -61.22305666 109.45798948 -64.27734375 112.734375 C-64.84654541 113.34482666 -65.41574707 113.95527832 -66.00219727 114.58422852 C-67.14642484 115.81158998 -68.29054969 117.0390472 -69.43457031 118.26660156 C-72.33893612 121.38231406 -75.24577674 124.49571611 -78.15234375 127.609375 C-79.31902201 128.85936418 -80.48568868 130.10936417 -81.65234375 131.359375 C-130.65234375 183.859375 -130.65234375 183.859375 -132.40380859 185.73583984 C-133.56573175 186.98082704 -134.72751652 188.2259434 -135.88916016 189.47119141 C-138.87725755 192.6739823 -141.86802133 195.87421797 -144.86328125 199.0703125 C-146.08471256 200.37492778 -147.30606793 201.67961417 -148.52734375 202.984375 C-149.11306152 203.60916748 -149.6987793 204.23395996 -150.30224609 204.87768555 C-154.14267617 208.98741742 -157.8805334 213.16887628 -161.50390625 217.47265625 C-164.05530552 220.00591761 -166.40919781 220.95736788 -169.90234375 221.671875 C-178.42951636 220.1960182 -184.7366136 210.28164667 -190.15234375 204.109375 C-191.69185273 202.39909696 -193.23349378 200.6907355 -194.77734375 198.984375 C-197.40487255 196.06641124 -200.01314168 193.13478066 -202.58984375 190.171875 C-206.24292331 185.97634279 -209.99739924 181.87563947 -213.74609375 177.765625 C-216.30383146 174.94214831 -218.81004344 172.07881498 -221.30859375 169.203125 C-223.56110832 166.64518473 -225.85551467 164.1275852 -228.15234375 161.609375 C-231.60809788 157.82003374 -235.01757265 153.99853802 -238.3828125 150.12890625 C-241.92811329 146.08272411 -245.54693374 142.10194313 -249.15234375 138.109375 C-253.89946791 132.85249254 -258.62972359 127.58633919 -263.26953125 122.234375 C-264.69006491 120.6311171 -266.13759713 119.05172281 -267.59765625 117.484375 C-276.581147 107.83047449 -282.57594907 100.92135384 -282.42578125 87.40625 C-281.8996368 81.06245123 -279.46111317 77.06426343 -274.83984375 72.796875 C-269.48669059 68.62573443 -264.27401196 66.47438619 -257.46484375 66.7734375 C-243.56960639 68.79200239 -232.72156969 82.2588327 -223.046875 91.4609375 C-219.78197419 94.55035916 -216.42869702 97.52084771 -213.03393555 100.46630859 C-210.36139559 102.80005635 -207.75843892 105.20156968 -205.15234375 107.609375 C-201.85281598 110.64906496 -198.54282768 113.67095559 -195.15234375 116.609375 C-191.76180004 119.54784622 -188.4538297 122.57176246 -185.15234375 125.609375 C-184.12115867 126.55215435 -183.08990983 127.49486396 -182.05859375 128.4375 C-180.27363171 130.07851349 -178.49999077 131.73207557 -176.74609375 133.40625 C-176.05515625 134.05078125 -175.36421875 134.6953125 -174.65234375 135.359375 C-174.06453125 135.92140625 -173.47671875 136.4834375 -172.87109375 137.0625 C-171.20827913 138.32365416 -171.20827913 138.32365416 -169.22949219 137.84326172 C-165.69161027 136.59327664 -163.43484604 133.64912285 -160.90234375 130.984375 C-159.73499217 129.78458798 -158.56573215 128.58665471 -157.39453125 127.390625 C-156.55293457 126.53017578 -156.55293457 126.53017578 -155.69433594 125.65234375 C-153.87919228 123.83605054 -151.98698617 122.14315945 -150.02734375 120.484375 C-146.21162259 117.24825705 -142.72637525 113.71161022 -139.21606445 110.15356445 C-136.63195916 107.54800318 -134.01016429 105.04876918 -131.21484375 102.671875 C-127.67555301 99.65584696 -124.4173963 96.41489922 -121.15234375 93.109375 C-117.30112438 89.21041817 -113.38812646 85.50113203 -109.2109375 81.94921875 C-106.08081213 79.15170633 -103.16548717 76.14312994 -100.21850586 73.15600586 C-97.01848604 69.92938847 -93.70162103 66.93007039 -90.24609375 63.984375 C-87.61248848 61.62592252 -85.13407861 59.12492096 -82.65234375 56.609375 C-78.98386794 52.89091995 -75.22085146 49.37269305 -71.24609375 45.984375 C-68.61248819 43.62592226 -66.13408157 41.1249182 -63.65234375 38.609375 C-60.59896424 35.51445998 -57.5291069 32.49003223 -54.21484375 29.671875 C-50.67552075 26.65581947 -47.41765844 23.41467727 -44.15234375 20.109375 C-40.23347613 16.14721508 -36.2766845 12.31086882 -32.0234375 8.703125 C-30.68214222 7.56064385 -29.36422622 6.39049396 -28.0625 5.203125 C-27.37027344 4.5740625 -26.67804688 3.945 -25.96484375 3.296875 C-25.35253906 2.73355469 -24.74023438 2.17023438 -24.109375 1.58984375 C-17.3250192 -3.54243339 -7.60649259 -3.31124523 0 0 Z " fill="#F0F1F1" transform="translate(391.15234375,147.890625)"/>
</svg>
