<?xml version="1.0" encoding="UTF-8"?>
<svg version="1.1" xmlns="http://www.w3.org/2000/svg" width="512" height="512">
<path d="M0 0 C45.87 0 91.74 0 139 0 C139 10.56 139 21.12 139 32 C145.93 32 152.86 32 160 32 C160 21.44 160 10.88 160 0 C170.56 0 181.12 0 192 0 C192 31.68 192 63.36 192 96 C202.56 96 213.12 96 224 96 C224 106.56 224 117.12 224 128 C234.56 128 245.12 128 256 128 C256 138.89 256 149.78 256 161 C245.44 161 234.88 161 224 161 C224 213.8 224 266.6 224 321 C118.4 321 12.8 321 -96 321 C-96 268.2 -96 215.4 -96 161 C-106.56 161 -117.12 161 -128 161 C-128 150.11 -128 139.22 -128 128 C-117.44 128 -106.88 128 -96 128 C-96 117.44 -96 106.88 -96 96 C-85.44 96 -74.88 96 -64 96 C-64 85.44 -64 74.88 -64 64 C-53.44 64 -42.88 64 -32 64 C-32 53.44 -32 42.88 -32 32 C-21.44 32 -10.88 32 0 32 C0 21.44 0 10.88 0 0 Z " fill="#001083" transform="translate(192,96)"/>
<path d="M0 0 C21.12 0 42.24 0 64 0 C64 10.56 64 21.12 64 32 C74.56 32 85.12 32 96 32 C96 95.36 96 158.72 96 224 C85.44 224 74.88 224 64 224 C64 192.32 64 160.64 64 128 C42.88 128 21.76 128 0 128 C0 159.68 0 191.36 0 224 C-52.8 224 -105.6 224 -160 224 C-160 181.76 -160 139.52 -160 96 C-128.32 96 -96.64 96 -64 96 C-64 85.44 -64 74.88 -64 64 C-53.44 64 -42.88 64 -32 64 C-32 53.44 -32 42.88 -32 32 C-21.44 32 -10.88 32 0 32 C0 21.44 0 10.88 0 0 Z " fill="#E7E6E7" transform="translate(288,160)"/>
<path d="M0 0 C45.87 0 91.74 0 139 0 C139 10.56 139 21.12 139 32 C145.93 32 152.86 32 160 32 C160 21.44 160 10.88 160 0 C170.56 0 181.12 0 192 0 C192 31.68 192 63.36 192 96 C181.44 96 170.88 96 160 96 C160 85.44 160 74.88 160 64 C138.88 64 117.76 64 96 64 C96 74.56 96 85.12 96 96 C85.44 96 74.88 96 64 96 C64 106.56 64 117.12 64 128 C42.88 128 21.76 128 0 128 C0 117.44 0 106.88 0 96 C-10.56 96 -21.12 96 -32 96 C-32 106.56 -32 117.12 -32 128 C-42.56 128 -53.12 128 -64 128 C-64 106.88 -64 85.76 -64 64 C-53.44 64 -42.88 64 -32 64 C-32 53.44 -32 42.88 -32 32 C-21.44 32 -10.88 32 0 32 C0 21.44 0 10.88 0 0 Z " fill="#EA399A" transform="translate(192,96)"/>
<path d="M0 0 C31.68 0 63.36 0 96 0 C96 42.24 96 84.48 96 128 C64.32 128 32.64 128 0 128 C0 85.76 0 43.52 0 0 Z " fill="#8087AA" transform="translate(128,256)"/>
<path d="M0 0 C45.87 0 91.74 0 139 0 C139 10.56 139 21.12 139 32 C145.93 32 152.86 32 160 32 C160 21.44 160 10.88 160 0 C170.56 0 181.12 0 192 0 C192 31.68 192 63.36 192 96 C181.44 96 170.88 96 160 96 C160 85.44 160 74.88 160 64 C138.88 64 117.76 64 96 64 C96 53.44 96 42.88 96 32 C85.44 32 74.88 32 64 32 C64 42.56 64 53.12 64 64 C53.44 64 42.88 64 32 64 C32 53.44 32 42.88 32 32 C21.44 32 10.88 32 0 32 C0 21.44 0 10.88 0 0 Z " fill="#000F83" transform="translate(192,96)"/>
<path d="M0 0 C10.56 0 21.12 0 32 0 C32 21.12 32 42.24 32 64 C10.88 64 -10.24 64 -32 64 C-32 53.44 -32 42.88 -32 32 C-21.44 32 -10.88 32 0 32 C0 21.44 0 10.88 0 0 Z " fill="#001084" transform="translate(256,128)"/>
<path d="M0 0 C21.12 0 42.24 0 64 0 C64 10.56 64 21.12 64 32 C53.44 32 42.88 32 32 32 C32 42.56 32 53.12 32 64 C21.44 64 10.88 64 0 64 C0 42.88 0 21.76 0 0 Z " fill="#EA399A" transform="translate(128,160)"/>
<path d="M0 0 C10.56 0 21.12 0 32 0 C32 10.56 32 21.12 32 32 C21.44 32 10.88 32 0 32 C0 21.44 0 10.88 0 0 Z " fill="#001084" transform="translate(224,192)"/>
<path d="M0 0 C10.56 0 21.12 0 32 0 C32 10.56 32 21.12 32 32 C21.44 32 10.88 32 0 32 C0 21.44 0 10.88 0 0 Z " fill="#EA399A" transform="translate(192,192)"/>
<path d="M0 0 C10.56 0 21.12 0 32 0 C32 10.56 32 21.12 32 32 C21.44 32 10.88 32 0 32 C0 21.44 0 10.88 0 0 Z " fill="#EA399A" transform="translate(128,192)"/>
<path d="M0 0 C10.56 0 21.12 0 32 0 C32 10.56 32 21.12 32 32 C21.44 32 10.88 32 0 32 C0 21.44 0 10.88 0 0 Z " fill="#EA399A" transform="translate(224,160)"/>
<path d="M0 0 C10.56 0 21.12 0 32 0 C32 10.56 32 21.12 32 32 C21.44 32 10.88 32 0 32 C0 21.44 0 10.88 0 0 Z " fill="#001084" transform="translate(192,160)"/>
<path d="M0 0 C10.56 0 21.12 0 32 0 C32 10.56 32 21.12 32 32 C21.44 32 10.88 32 0 32 C0 21.44 0 10.88 0 0 Z " fill="#001083" transform="translate(128,160)"/>
<path d="M0 0 C10.56 0 21.12 0 32 0 C32 10.56 32 21.12 32 32 C21.44 32 10.88 32 0 32 C0 21.44 0 10.88 0 0 Z " fill="#EA399A" transform="translate(256,128)"/>
<path d="M0 0 C10.56 0 21.12 0 32 0 C32 10.56 32 21.12 32 32 C21.44 32 10.88 32 0 32 C0 21.44 0 10.88 0 0 Z " fill="#001083" transform="translate(160,128)"/>
</svg>
